<?xml version="1.0" encoding="utf-8"?>
<!-- Generator: Adobe Illustrator 19.1.0, SVG Export Plug-In . SVG Version: 6.00 Build 0)  -->
<svg version="1.1" id="Your_Icon" xmlns="http://www.w3.org/2000/svg" xmlns:xlink="http://www.w3.org/1999/xlink" x="0px" y="0px"
	 width="100px" height="100px" viewBox="0 0 100 100" enable-background="new 0 0 100 100" xml:space="preserve">
<path d="M47.75,11.938c-0.111,0-0.221,0.007-0.333,0.008c0.113-0.002,0.224-0.008,0.337-0.008
	C47.753,11.938,47.751,11.938,47.75,11.938z"/>
<path d="M96.865,46.549v-0.013l-0.052-0.029c-0.164-0.117-0.342-0.213-0.524-0.304l-2.022-1.173c-0.282-2.61-0.797-5.15-1.515-7.603
	l1.265-1.625c0.206-0.209,0.384-0.443,0.538-0.691l0.028-0.038l-0.004-0.01c0.636-1.047,0.791-2.367,0.286-3.585
	c-0.504-1.217-1.547-2.041-2.734-2.333l-0.007-0.013l-0.064-0.009c-0.18-0.04-0.361-0.056-0.545-0.072l-2.363-0.316
	c-1.248-2.278-2.699-4.428-4.317-6.437l0.549-1.997c0.111-0.27,0.184-0.55,0.232-0.834l0.015-0.054l-0.009-0.009
	c0.187-1.211-0.175-2.487-1.107-3.42c-0.933-0.933-2.21-1.293-3.42-1.108l-0.01-0.01l-0.071,0.018
	c-0.164,0.028-0.323,0.08-0.483,0.129l-2.358,0.627c-2.01-1.617-4.161-3.065-6.438-4.312l-0.253-2.042
	c-0.001-0.29-0.04-0.575-0.104-0.853l-0.009-0.06l-0.012-0.006c-0.293-1.188-1.114-2.231-2.333-2.735
	c-1.217-0.505-2.536-0.35-3.582,0.286l-0.013-0.006l-0.053,0.039c-0.153,0.098-0.292,0.212-0.433,0.331L63.04,7.739
	c-2.453-0.716-4.992-1.23-7.601-1.508l-1.019-1.794c-0.114-0.27-0.262-0.517-0.428-0.752l-0.027-0.049h-0.013
	C53.227,2.649,52.068,2,50.75,2c-1.317,0-2.477,0.649-3.201,1.634h-0.016l-0.038,0.064c-0.094,0.133-0.169,0.28-0.248,0.427
	l-1.224,2.111c-2.61,0.28-5.149,0.796-7.601,1.515l-1.621-1.264c-0.21-0.209-0.446-0.386-0.693-0.541l-0.038-0.029L36.06,5.921
	c-1.046-0.636-2.366-0.791-3.583-0.284c-1.217,0.504-2.041,1.547-2.332,2.735l-0.014,0.005l-0.01,0.073
	c-0.036,0.159-0.049,0.322-0.066,0.484l-0.322,2.415c-2.277,1.248-4.427,2.698-6.435,4.318l-1.994-0.55
	c-0.271-0.112-0.553-0.185-0.839-0.233l-0.05-0.014l-0.008,0.007c-1.211-0.186-2.488,0.175-3.421,1.108
	c-0.933,0.933-1.293,2.209-1.107,3.42l-0.012,0.011l0.02,0.075c0.026,0.149,0.074,0.294,0.117,0.44l0.636,2.399
	c-1.617,2.009-3.065,4.159-4.31,6.438l-2.034,0.25C10,29.022,9.71,29.062,9.425,29.127l-0.052,0.006l-0.004,0.011
	c-1.188,0.292-2.229,1.114-2.733,2.332c-0.504,1.216-0.349,2.536,0.285,3.582l-0.007,0.016l0.048,0.062
	c0.082,0.129,0.182,0.244,0.277,0.362l1.502,1.961c-0.716,2.454-1.231,4.992-1.508,7.602l-1.79,1.016
	c-0.273,0.114-0.525,0.263-0.763,0.433l-0.045,0.025v0.012C3.648,47.273,3,48.433,3,49.75c0,1.318,0.648,2.477,1.634,3.201v0.017
	l0.068,0.039c0.12,0.086,0.251,0.149,0.383,0.222l2.153,1.25c0.28,2.609,0.795,5.146,1.513,7.599L7.484,63.7
	c-0.205,0.208-0.382,0.44-0.534,0.688l-0.036,0.043l0.006,0.014c-0.635,1.046-0.789,2.362-0.284,3.579
	c0.504,1.219,1.547,2.045,2.735,2.337l0.005,0.012l0.137,0.02c0.183,0.036,0.368,0.062,0.556,0.074l2.282,0.305
	c1.248,2.277,2.697,4.424,4.317,6.434l-0.552,1.995c-0.11,0.271-0.184,0.553-0.231,0.837L15.87,80.09l0.009,0.009
	c-0.186,1.21,0.175,2.487,1.107,3.419c0.776,0.777,1.796,1.165,2.814,1.165c0.203,0,0.405-0.026,0.605-0.059l0.011,0.013l0.073-0.02
	c0.157-0.028,0.308-0.078,0.462-0.125l2.378-0.632c2.009,1.616,4.161,3.067,6.438,4.312l0.252,2.041
	c0.001,0.292,0.042,0.577,0.106,0.855l0.007,0.059l0.012,0.006c0.292,1.188,1.114,2.231,2.332,2.733
	c0.497,0.207,1.013,0.306,1.521,0.306c0.735,0,1.447-0.211,2.067-0.589l0.008,0.005l0.039-0.029c0.208-0.132,0.404-0.28,0.586-0.447
	l1.764-1.35c2.453,0.716,4.991,1.229,7.601,1.51l1.019,1.795c0.112,0.268,0.26,0.519,0.427,0.751l0.028,0.05h0.013
	c0.725,0.983,1.883,1.632,3.202,1.632c1.318,0,2.477-0.648,3.201-1.635h0.015l0.037-0.062c0.097-0.138,0.176-0.29,0.255-0.441
	l1.218-2.098c2.608-0.281,5.147-0.797,7.599-1.516l1.678,1.309c0.2,0.191,0.416,0.359,0.647,0.506l0.029,0.02l0.005-0.002
	c0.621,0.377,1.334,0.588,2.068,0.588c0.509,0,1.022-0.099,1.521-0.305c1.219-0.504,2.04-1.547,2.331-2.734l0.016-0.007l0.012-0.077
	c0.032-0.15,0.045-0.309,0.062-0.463l0.324-2.435c2.277-1.249,4.425-2.697,6.433-4.316l2.056,0.569
	c0.249,0.096,0.504,0.165,0.763,0.21l0.068,0.019l0.012-0.012c0.2,0.031,0.401,0.059,0.604,0.059c1.019,0,2.036-0.389,2.814-1.166
	c0.931-0.931,1.292-2.208,1.106-3.417l0.011-0.01l-0.017-0.066c-0.031-0.184-0.085-0.363-0.146-0.543l-0.614-2.306
	c1.619-2.009,3.067-4.16,4.313-6.438l2.065-0.256c0.273-0.002,0.541-0.041,0.807-0.099l0.081-0.012l0.006-0.008
	c1.188-0.291,2.231-1.115,2.735-2.336c0.505-1.218,0.35-2.535-0.285-3.581l0.007-0.015l-0.045-0.06
	c-0.089-0.14-0.194-0.267-0.301-0.394l-1.481-1.936c0.717-2.453,1.229-4.992,1.51-7.601l1.805-1.023
	c0.261-0.111,0.504-0.254,0.734-0.413l0.057-0.034v-0.015c0.986-0.725,1.635-1.883,1.635-3.201
	C98.5,48.431,97.852,47.273,96.865,46.549z M75.446,40.657c0,0,0.08,0.354-0.106,0.707c-0.187,0.355-0.746,1.206-1.163,1.435
	c-0.415,0.229-0.57,0.242-0.811,0.211c-0.15-0.02-0.663,0.143-0.832,0.268c-0.162,0.126-0.914,0.229-1.56,0
	c-0.646-0.229-1.495,0-1.808,0.582c-0.312,0.583-0.998,1.539-1.06,1.768c-0.062,0.227-0.335,1.289-0.604,1.725
	c-0.27,0.438-0.458,0.875-0.81,1.289c-0.353,0.416-0.791,0.833-0.895,1.082c-0.104,0.249,0.125,1.01-0.041,1.594
	c-0.166,0.583-0.5,0.942-0.609,1.081c-0.111,0.139-0.445,0.942-0.803,1.69c-0.363,0.748-1.084,1.636-1.306,1.805
	c-0.221,0.165-0.58,0.691-0.746,1.106c-0.169,0.417-0.443,1.026-0.554,1.636c-0.112,0.609-0.307,2.965-0.364,3.466
	c-0.054,0.497-0.166,1.22-0.137,1.441c0.025,0.222,0.335,3.3,0.335,3.3s0.276,0.857,0.58,0.996c0.306,0.138,1.08,0.334,1.386,0.888
	c0.306,0.554,0.306,0.859-0.414,0.97c-0.721,0.11-1.386,0.471-2.22-0.084c-0.83-0.555-0.887-1.22-1.025-1.58
	c-0.14-0.359-0.307-1.106-0.582-1.386c-0.279-0.279-0.249-1.552-0.332-2.687c-0.083-1.14-0.335-4.02-0.307-4.385
	c0.026-0.358-0.195-0.691-0.14-0.997c0.055-0.303,0.122-1.039,0.023-1.261c-0.099-0.229-0.023-0.208-0.326-0.29
	c-0.306-0.084-3.218-0.219-5.739-1.164c-2.522-0.941-4.769-1.691-6.155-1.746c-1.385-0.056-3.105-0.473-3.271-0.279
	c-0.166,0.194-0.748,1.831-1.413,3.383c-0.667,1.552-1.082,1.692-1.471,2.441c-0.387,0.749-1.052,1.496-1.552,1.996
	c-0.499,0.499-1.332,2.024-1.386,2.303c-0.055,0.275-0.278,1.052,0,1.218c0.278,0.167,0.805,0.193,1.193,0.333
	c0.387,0.138,0.525,0.442,0.47,0.694c-0.055,0.25-0.111,0.47-0.333,0.497c-0.221,0.029-0.25,0.224-0.637,0.277
	c-0.388,0.057-0.829-0.108-0.829-0.108s-0.162,1.013-0.036,1.222c0.133,0.218,0.533,0.468,0.892,0.497
	c0.361,0.025,1.025,0.634,1.109,0.885c0.084,0.249,0.056,0.414-0.193,0.556c-0.25,0.137-0.14,0.303-0.666,0.387
	c-0.527,0.084-1.053,0.084-1.413-0.167c-0.361-0.25-0.833-0.692-0.833-0.941c0-0.251-0.25-0.832-0.306-1.08
	c-0.056-0.252-0.444-2.275-0.471-2.608c-0.028-0.332-0.278-0.914-0.306-1.164c-0.026-0.249,0.028-0.997,0-1.163
	c-0.027-0.166-0.109-0.332,0.139-0.554c0.249-0.222,0.498-0.61,0.498-0.61s0.003-0.247,0.124-0.867
	c0.12-0.622,0.515-2.183,0.765-2.404c0.249-0.222,0.193-0.416,0.471-0.748c0.277-0.331,0.11-1.774-0.028-2.495
	c-0.139-0.72-0.305-1.948-0.582-2.318c-0.278-0.37-0.472-2.228-0.388-2.753c0.084-0.528,0.498-1.941,0.72-2.135
	c0.222-0.195,0.388-0.389,0.443-0.804c0.056-0.416,0.027-0.722-0.222-0.86c-0.248-0.137-5.628-1.886-6.903-2.856
	c-1.276-0.969-3.468-3.239-3.912-6.566c-0.194-1.452-0.144-1.711-0.205-2.207c-0.079-0.643-0.056-0.704,0.041-0.763
	c0.097-0.06,0.25,0.172,0.608,0.579c0.385,0.44,0.898,1.155,1.361,2.22c0.888,2.052,2.135,4.408,3.992,5.211
	c1.858,0.804,5.295,1.746,6.099,2.025c0.804,0.275,0.991,0.362,1.331,0.263c0.125-0.037,2.577-0.791,4.449-0.624
	c1.872,0.165,5.282,0.373,7.236,0.624c1.955,0.249,3.368,0.1,4.322-0.325c0.959-0.423,1.999-0.34,2.994-0.757
	c0.998-0.417,1.581-1.124,2.746-2.121c1.164-0.998,2.327-2.454,2.743-2.911c0.327-0.361,0.982-1.422,1.975-1.994
	c-0.003,0-0.007-0.005-0.007-0.005c0.137-0.212,0.828-0.708,1.515-0.715c0.749-0.007,0.902,0.155,1.16,0.268
	c0.065,0.027,0.124,0.064,0.177,0.105c0.779,0.103,1.451,0.293,1.821,0.399c0.663,0.195,0.948,0.693,1.135,1.025
	c0.187,0.333,0.104,0.937,1.121,1.145c1.019,0.207,2.246,0.498,2.412,0.582c0.166,0.083,0.835,0.214,0.71,0.783
	C75.599,40.749,75.446,40.657,75.446,40.657z M50.417,13.946c0.112-0.002,0.222-0.008,0.333-0.008c0.002,0,0.003,0,0.004,0
	c0.002,0,0.003,0,0.004,0c0.521,0,1.039,0.014,1.555,0.04c7.594,0.381,14.457,3.539,19.591,8.48
	c1.544,1.485,1.111,1.946-0.622,0.688c-5.645-4.104-12.77-6.554-20.523-6.554c-7.73,0-14.839,2.437-20.477,6.518
	c-1.752,1.269-2.249,0.877-0.73-0.594c5.143-4.976,12.032-8.157,19.657-8.538C49.609,13.957,50.013,13.951,50.417,13.946z"/>
</svg>
